<svg width="10px" height="16px" viewBox="0 0 10 16" version="1.1" xmlns="http://www.w3.org/2000/svg" xmlns:xlink="http://www.w3.org/1999/xlink">
    <g id="Page-1" stroke="none" stroke-width="1" fill="none" fill-rule="evenodd">
        <path d="M8.7924422,8.79189951 L1.91269519,15.6716465 C1.62975124,15.9547334 1.21727523,16.0653676 0.830642857,15.9618744 C0.444010488,15.8583812 0.141960421,15.5564836 0.0382719945,15.1699035 C-0.0654164323,14.7833234 0.0450095193,14.3707916 0.327953462,14.0877048 L6.4157296,7.99992863 L0.328753433,1.91295246 C-0.108860892,1.47533812 -0.108860883,0.765825093 0.328753453,0.328210758 C0.766367789,-0.109403578 1.47588081,-0.109403587 1.91349516,0.328210737 L8.79324217,7.20795775 C9.00329991,7.41799406 9.12131092,7.70287728 9.12131092,7.99992863 C9.12131092,8.29697998 9.00329991,8.5818632 8.79324217,8.79189951 L8.7924422,8.79189951 Z" id="arrow-left" fill="#1D1D1D" fill-rule="nonzero" transform="translate(4.560655, 8.000000) scale(-1, 1) translate(-4.560655, -8.000000) "></path>
    </g>
</svg>
