
<svg width="17px" height="16px" viewBox="0 0 17 16" version="1.1" xmlns="http://www.w3.org/2000/svg" xmlns:xlink="http://www.w3.org/1999/xlink">
    <g id="Page-1" stroke="none" stroke-width="1" fill="none" fill-rule="evenodd">
        <path d="M8.08570801,0.00126072421 C7.82217511,0.0189431213 7.57587896,0.138530399 7.39900224,0.334685654 L0.283836877,8.18220294 C0.0272870447,8.44893512 -0.0639830132,8.83404405 0.045573342,9.18754268 C0.155129697,9.5410413 0.448190623,9.80703831 0.810618678,9.88193676 C1.17304673,9.9568352 1.54753879,9.82879297 1.7882427,9.54767822 L8.15120002,2.52977037 L14.5141573,9.54767822 C14.7548611,9.8287935 15.1293534,9.95683617 15.4917818,9.8819378 C15.8542102,9.80703944 16.1472714,9.54104217 16.2568277,9.18754319 C16.3663839,8.83404422 16.2751135,8.44893501 16.0185631,8.18220294 L8.9033978,0.334685654 C8.71933606,0.131438151 8.46095329,0.0111939832 8.18692847,0.00126072421 C8.15321265,-0.000420241403 8.119434,-0.000420241403 8.08571818,0.00126072421 L8.08570801,0.00126072421 Z M8.08570801,6.09826664 C7.82217511,6.11594904 7.57587896,6.23553632 7.39900224,6.43169157 L0.283836877,14.2792089 C0.0272870447,14.545941 -0.0639830132,14.93105 0.045573342,15.2845486 C0.155129697,15.6380472 0.448190623,15.9040442 0.810618678,15.9789427 C1.17304673,16.0538411 1.54753879,15.9257989 1.7882427,15.6446841 L8.15120002,8.62677629 L14.5141573,15.6446841 C14.7548611,15.9257994 15.1293534,16.0538421 15.4917818,15.9789437 C15.8542102,15.9040454 16.1472714,15.6380481 16.2568277,15.2845491 C16.3663839,14.9310501 16.2751135,14.5459409 16.0185631,14.2792089 L8.9033978,6.43169157 C8.71933606,6.22844407 8.46095329,6.1081999 8.18692847,6.09826664 C8.15321265,6.09658568 8.119434,6.09658568 8.08571818,6.09826664 L8.08570801,6.09826664 Z" id="Shape" fill="#000000" fill-rule="nonzero"></path>
    </g>
</svg>
